<svg width="102" height="24" viewBox="0 0 102 24" fill="none" xmlns="http://www.w3.org/2000/svg">
<path d="M8.6492 2.42834C3.93648 2.42834 0.860112 5.65744 0.860112 10.2393C0.860112 14.8429 3.95829 18.072 8.67102 18.072C12.6856 18.072 15.0637 15.5847 15.9801 13.3374V9.19198H7.99466V12.2683H12.2928C11.6601 13.5993 10.5692 14.2974 9.08557 14.2974C6.55466 14.2974 5.20193 12.8793 5.20193 10.2393C5.20193 7.88289 6.51102 6.37744 8.67102 6.37744C9.8492 6.37744 10.7219 6.83562 11.2019 7.64289H15.8056C15.1947 4.43562 12.5328 2.42834 8.6492 2.42834ZM30.0274 11.832C30.0274 7.94834 27.2565 5.57016 23.6129 5.57016C19.9693 5.57016 17.1984 7.94834 17.1984 11.832C17.1984 15.7374 19.9474 18.1156 23.5911 18.1156C27.2347 18.1156 30.0274 15.7374 30.0274 11.832ZM21.562 11.832C21.562 10.0865 22.522 9.27925 23.6129 9.27925C24.7038 9.27925 25.6856 10.0865 25.6856 11.832C25.6856 13.5993 24.682 14.4065 23.5911 14.4065C22.4784 14.4065 21.562 13.5993 21.562 11.832ZM43.8982 11.832C43.8982 7.94834 41.1273 5.57016 37.4836 5.57016C33.84 5.57016 31.0691 7.94834 31.0691 11.832C31.0691 15.7374 33.8182 18.1156 37.4618 18.1156C41.1055 18.1156 43.8982 15.7374 43.8982 11.832ZM35.4327 11.832C35.4327 10.0865 36.3927 9.27925 37.4836 9.27925C38.5745 9.27925 39.5564 10.0865 39.5564 11.832C39.5564 13.5993 38.5527 14.4065 37.4618 14.4065C36.3491 14.4065 35.4327 13.5993 35.4327 11.832ZM44.9398 11.832C44.9398 15.7374 47.2526 18.1156 50.1544 18.1156C51.878 18.1156 53.0998 17.352 53.7326 16.2611V17.9629H58.0307V1.81744H53.7326V7.40289C53.0562 6.29016 51.7907 5.57016 50.1762 5.57016C47.2526 5.57016 44.9398 7.92653 44.9398 11.832ZM53.7544 11.832C53.7544 13.4902 52.7289 14.3847 51.5289 14.3847C50.3071 14.3847 49.3035 13.4683 49.3035 11.832C49.3035 10.1738 50.3071 9.30107 51.5289 9.30107C52.7289 9.30107 53.7544 10.1956 53.7544 11.832Z" fill="white"/>
<path d="M60.4676 17.9629H64.7439V1.81744H60.4676V17.9629ZM73.1792 12.6611L70.6047 5.72289H65.8483L70.8665 17.4393L67.9428 23.7883H72.5901L80.3574 5.72289H75.6665L73.1792 12.6611ZM81.8688 17.9629H86.167V9.27925H88.087V5.72289H86.167C86.2324 4.63198 86.7561 4.28289 88.0433 4.4138V0.770162C84.0724 0.486526 81.8688 2.23198 81.8688 5.6138V5.72289H80.5379V9.27925H81.8688V17.9629ZM95.1135 8.95198C96.0953 8.95198 96.9462 9.54107 96.9462 10.632H93.1716C93.368 9.51925 94.088 8.95198 95.1135 8.95198ZM101.048 13.7302H96.488C96.248 14.232 95.7898 14.6902 94.9607 14.6902C94.0007 14.6902 93.2371 14.1229 93.1498 12.7047H101.244C101.288 12.3774 101.31 12.0283 101.31 11.7011C101.31 7.90471 98.7571 5.57016 95.1353 5.57016C91.4698 5.57016 88.9171 7.94834 88.9171 11.832C88.9171 15.7374 91.5135 18.1156 95.1353 18.1156C98.1898 18.1156 100.481 16.2393 101.048 13.7302Z" fill="#FFC1D8"/>
</svg>
